<svg xmlns="http://www.w3.org/2000/svg" viewBox="0 0 60 60"><defs><style>.cls-1{fill:#50555a;}</style></defs><title>Ativo 1</title><g id="Camada_2" data-name="Camada 2"><g id="Camada_1-2" data-name="Camada 1"><path class="cls-1" d="M2.66,1a.8.8,0,0,1,.48.25L29.3,27l.7.69.7-.69L56.86,1.25A.8.8,0,0,1,57.34,1c.31,0,.79.42,1.1,1.33l.3.88a4.86,4.86,0,0,1-.62,4.47L30.5,34.9a.71.71,0,0,1-.47.24H30a.71.71,0,0,1-.47-.24L1.88,7.68a4.86,4.86,0,0,1-.62-4.47l.3-.88C1.87,1.42,2.35,1,2.66,1M57.34,0a1.67,1.67,0,0,0-1.18.54L30,26.32,3.84.54A1.67,1.67,0,0,0,2.66,0C1.84,0,1.05.72.61,2l-.3.88c-.64,1.92-.26,4.4.87,5.5L28.8,35.61a1.67,1.67,0,0,0,1.17.53H30a1.67,1.67,0,0,0,1.17-.53L58.82,8.39c1.13-1.1,1.51-3.58.87-5.5L59.39,2c-.44-1.29-1.23-2-2-2Z"/><path class="cls-1" d="M57.34,24.86c.31,0,.79.41,1.1,1.33l.3.87a4.88,4.88,0,0,1-.62,4.48L30.5,58.75A.69.69,0,0,1,30,59H30a.71.71,0,0,1-.47-.24L1.88,31.54a4.88,4.88,0,0,1-.62-4.48l.3-.87c.31-.92.79-1.33,1.1-1.33a.75.75,0,0,1,.48.25L29.3,50.89l.7.69.7-.69L56.86,25.11a.75.75,0,0,1,.48-.25m0-1a1.69,1.69,0,0,0-1.18.53L30,50.18,3.84,24.39a1.69,1.69,0,0,0-1.18-.53c-.82,0-1.61.72-2.05,2l-.3.87c-.64,1.92-.26,4.4.87,5.51L28.8,59.47A1.67,1.67,0,0,0,30,60H30a1.67,1.67,0,0,0,1.17-.53L58.82,32.25c1.13-1.11,1.51-3.59.87-5.51l-.3-.87c-.44-1.29-1.23-2-2-2Z"/></g></g></svg>